<?xml version="1.0" encoding="iso-8859-1"?>
<!DOCTYPE svg PUBLIC "-//W3C//DTD SVG 1.1//EN" "http://www.w3.org/Graphics/SVG/1.1/DTD/svg11.dtd">
<svg 
 version="1.1" xmlns="http://www.w3.org/2000/svg" xmlns:xlink="http://www.w3.org/1999/xlink" x="0px" y="0px" width="512px"
	 height="512px" viewBox="0 0 512 512" enable-background="new 0 0 512 512" xml:space="preserve"
><g id="b75708d097f2188dff6617b0f00c47b0"><g></g><path display="inline" d="M423.064,234.227c2.079-7.369,3.269-15.108,3.269-23.139c0-47.037-38.129-80.908-85.166-80.908
		c-15.782,0-30.512,3.884-43.183,10.729c-22.968-32.674-61.808-53.313-105.859-53.313c-70.554,0-127.75,52.938-127.75,123.491
		c0,8.999,0.94,17.773,2.711,26.249C28.466,249.691,0.5,285.866,0.5,328.591c0,52.918,42.895,95.813,95.813,95.813l320.174-0.398
		c52.472,0,95.014-42.542,95.014-95.015C511.5,278.73,472.468,237.607,423.064,234.227z M416.448,394.196l-320.136,0.399
		c-36.396,0-66.004-29.609-66.004-66.005c0-28.826,18.431-54.09,45.86-62.864c14.544-4.651,23.219-19.543,20.096-34.488
		c-1.38-6.605-2.082-13.384-2.082-20.15c0-52.532,43.022-93.684,97.942-93.684c33.125,0,63.582,15.195,81.474,40.646
		c5.76,8.192,14.976,12.669,24.406,12.669c4.804,0,9.661-1.16,14.147-3.584c8.654-4.675,18.688-7.146,29.015-7.146
		c31.559,0,55.358,21.967,55.358,51.1c0,4.93-0.724,9.991-2.15,15.044c-2.437,8.642-0.849,17.921,4.32,25.261
		c5.174,7.342,13.379,11.96,22.336,12.571c34.013,2.328,60.66,30.894,60.66,65.026C481.691,364.945,452.44,394.196,416.448,394.196z
		 M320.586,277.491h-6.845c-1.427-5.515-3.626-10.725-6.462-15.503l4.819-4.828c3.884-3.871,4.67-9.386,1.763-12.292l-10.541-10.542
		c-2.907-2.907-8.413-2.121-12.302,1.755l-4.873,4.891c-4.708-2.766-9.823-4.916-15.237-6.313v-6.845
		c0-5.489-3.335-9.938-7.448-9.938h-14.908c-4.117,0-7.448,4.449-7.448,9.938v6.845c-5.427,1.397-10.533,3.544-15.241,6.305
		l-4.882-4.882c-3.884-3.876-9.386-4.662-12.297-1.755l-10.538,10.542c-2.911,2.906-2.125,8.421,1.755,12.292l4.82,4.828
		c-2.836,4.774-5.036,9.988-6.458,15.503h-6.849c-5.485,0-9.931,3.335-9.931,7.452v14.904c0,4.117,4.445,7.447,9.931,7.447h6.849
		c1.397,5.428,3.543,10.534,6.313,15.241l-4.886,4.883c-3.884,3.884-4.67,9.386-1.763,12.292l10.542,10.542
		c2.907,2.907,8.421,2.125,12.305-1.751l4.82-4.832c4.787,2.849,9.989,5.04,15.511,6.463v6.845c0,5.489,3.331,9.938,7.448,9.938
		h14.908c4.113,0,7.448-4.449,7.448-9.938v-6.845c5.519-1.423,10.725-3.627,15.499-6.463l4.832,4.832
		c3.872,3.876,9.386,4.658,12.293,1.751l10.542-10.542c2.906-2.906,2.12-8.408-1.764-12.292l-4.886-4.883
		c2.77-4.707,4.919-9.813,6.316-15.241h6.845c5.485,0,9.931-3.33,9.931-7.447v-14.904
		C330.517,280.826,326.071,277.491,320.586,277.491z M256,329.651c-20.547,0-37.252-16.713-37.252-37.256S235.453,255.14,256,255.14
		c20.547,0,37.265,16.713,37.265,37.256S276.547,329.651,256,329.651z"></path></g></svg>