<?xml version="1.0" encoding="iso-8859-1"?>
<!DOCTYPE svg PUBLIC "-//W3C//DTD SVG 1.1//EN" "http://www.w3.org/Graphics/SVG/1.1/DTD/svg11.dtd">
<svg 
 version="1.1" xmlns="http://www.w3.org/2000/svg" xmlns:xlink="http://www.w3.org/1999/xlink" x="0px" y="0px" width="512px"
	 height="512px" viewBox="0 0 512 512" style="enable-background:new 0 0 512 512;" xml:space="preserve"
><g id="5151e0c8492e5103c096af88a502c7c4"><g></g><path d="M405.042,0.5H106.958c-35.131,0-63.875,28.744-63.875,63.875v298.083v85.167c0,35.131,28.744,63.875,63.875,63.875
			h298.083c35.131,0,63.875-28.744,63.875-63.875v-85.167V64.375C468.917,29.244,440.173,0.5,405.042,0.5z M64.375,64.375
			c0-23.481,19.104-42.583,42.583-42.583h298.083c23.479,0,42.583,19.103,42.583,42.583v298.083
			c0,23.479-19.104,42.584-42.583,42.584H106.958c-23.479,0-42.583-19.104-42.583-42.584V64.375z M266.857,306.293
			c-2.981,2.978-6.602,4.471-10.857,4.471c-4.26,0-7.88-1.493-10.86-4.471c-2.982-2.981-4.471-6.6-4.471-10.861
			c0-4.255,1.489-7.877,4.471-10.858c2.979-2.978,6.6-4.471,10.86-4.471c4.256,0,7.876,1.493,10.857,4.471
			c2.982,2.981,4.471,6.604,4.471,10.858C271.328,299.693,269.84,303.312,266.857,306.293z M243.481,116.07h25.552v146.405h-25.552
			V116.07z"></path></g></svg>